<svg id="그룹_3" data-name="그룹 3" xmlns="http://www.w3.org/2000/svg" xmlns:xlink="http://www.w3.org/1999/xlink" width="46" height="24" viewBox="0 0 46 24">
  <defs>
    <clipPath id="clip-path">
      <rect id="사각형_7" data-name="사각형 7" width="46" height="24" fill="none"/>
    </clipPath>
  </defs>
  <g id="그룹_2" data-name="그룹 2" clip-path="url(#clip-path)">
    <path id="패스_5" data-name="패스 5" d="M45.7,20.663,34.419,1.112A2.223,2.223,0,0,0,32.493,0H27.535a2.223,2.223,0,0,0-1.925,1.112L23,5.632,20.394,1.113A2.223,2.223,0,0,0,18.468,0h-4.96a2.223,2.223,0,0,0-1.925,1.112L.3,20.663A2.225,2.225,0,0,0,2.227,24H7.635a2.223,2.223,0,0,0,1.925-1.112l5.456-9.455a1.121,1.121,0,0,1,1.942,0l.77,1.334.028.049,4.654,8.065A2.237,2.237,0,0,0,24.348,24h5.418a2.214,2.214,0,0,0,1.917-3.322l-3.41-5.911.77-1.335a1.121,1.121,0,0,1,1.942,0l5.456,9.455A2.222,2.222,0,0,0,38.366,24h5.408A2.225,2.225,0,0,0,45.7,20.663" transform="translate(0)" fill="#7289da"/>
  </g>
</svg>
