<svg xmlns="http://www.w3.org/2000/svg" width="21.311" height="18" viewBox="0 0 21.311 18">
  <g id="XMLID_229_" transform="translate(0.001 -25.633)">
    <path id="XMLID_230_" d="M157.216,34.393a6.171,6.171,0,0,1,.626.733,6.1,6.1,0,0,1,.908,1.831l6.378-6.378a2.9,2.9,0,1,0-4.1-4.1l-6.375,6.375a6.076,6.076,0,0,1,1.829.911A6.228,6.228,0,0,1,157.216,34.393Z" transform="translate(-144.668 0)" fill="#1e2124"/>
    <path id="XMLID_231_" d="M1.9,170.617a6.565,6.565,0,0,0,9.274,0h0a4.205,4.205,0,0,0-2.871-7.181l-.106,0a4.181,4.181,0,0,0-2.976,1.231h0a3.623,3.623,0,0,1-3.9.8A.969.969,0,0,0,0,166.435,6.552,6.552,0,0,0,1.9,170.617Z" transform="translate(0 -128.902)" fill="#1e2124"/>
  </g>
</svg>
