<svg xmlns="http://www.w3.org/2000/svg" width="28" height="28" viewBox="0 0 28 28">
  <path id="light-config-svgrepo-com_1_" data-name="light-config-svgrepo-com (1)" d="M23.563,24.381l.913-.894c4.223.136,4.288-.01,4.473-.438l1.16-2.785L30.195,20l-.094-.231c-.05-.122-.2-.486-2.84-2.965V15.5c3.042-2.89,2.977-3.038,2.8-3.461L28.91,9.225c-.173-.422-.239-.587-4.432-.474l-.913-.93a19.888,19.888,0,0,0-.143-4.106l-.118-.263-3.016-1.3c-.444-.2-.6-.272-3.448,2.786l-1.28-.019c-2.932-3.086-3.071-3.03-3.51-2.855l-2.8,1.118c-.439.175-.594.237-.424,4.437l-.906.89c-4.221-.136-4.286.012-4.469.438L2.286,11.733,2.2,12l.1.232c.05.12.2.48,2.84,2.962v1.3c-3.042,2.89-2.976,3.038-2.8,3.462l1.154,2.817c.176.431.239.584,4.431.476l.913.935a19.963,19.963,0,0,0,.139,4.1l.118.265,3.035,1.308c.441.182.594.247,3.434-2.8l1.28.016c2.936,3.09,3.086,3.03,3.515,2.859l2.8-1.115C23.586,28.644,23.74,28.583,23.563,24.381ZM11.537,17.857a4.936,4.936,0,0,1,2.869-6.39,5.05,5.05,0,0,1,6.5,2.789,4.934,4.934,0,0,1-2.788,6.425A5.108,5.108,0,0,1,11.537,17.857Z" transform="translate(-2.195 -1.997)" fill="#99aab5"/>
</svg>
