<svg xmlns="http://www.w3.org/2000/svg" width="23.995" height="24" viewBox="0 0 23.995 24">
  <path id="home-svgrepo-com" d="M23.578,16.287l-3-2.555V9.645a.819.819,0,0,0-.8-.835h-1.89a.819.819,0,0,0-.8.835v1.118L13.075,7.349a1.7,1.7,0,0,0-2.149,0l-10.5,8.94c-.477.406-.449.76-.389.934s.251.467.864.467H2.334V29.444a1.49,1.49,0,0,0,1.453,1.522H8.33a1.456,1.456,0,0,0,1.417-1.522V24.623a.807.807,0,0,1,.763-.789h3.052a.746.746,0,0,1,.69.789v4.821a1.526,1.526,0,0,0,1.49,1.522h4.469a1.49,1.49,0,0,0,1.453-1.522V17.688H23.1c.613,0,.8-.292.864-.467S24.056,16.693,23.578,16.287Z" transform="translate(-0.004 -6.966)" fill="#99aab5"/>
</svg>
