<svg xmlns="http://www.w3.org/2000/svg" width="20" height="14" viewBox="0 0 20 14">
  <path id="delete-f-svgrepo-com" d="M14.71,7l1.444-1.414a.985.985,0,0,0,0-1.414,1.036,1.036,0,0,0-1.444,0L13.266,5.586,11.822,4.172a1.036,1.036,0,0,0-1.444,0,.985.985,0,0,0,0,1.414L11.822,7,10.378,8.414a.985.985,0,0,0,0,1.414,1.036,1.036,0,0,0,1.444,0l1.444-1.414L14.71,9.828a1.036,1.036,0,0,0,1.444,0,.985.985,0,0,0,0-1.414ZM7.985,0H18.372a2.021,2.021,0,0,1,2.042,2V12a2.021,2.021,0,0,1-2.042,2H7.985a2.064,2.064,0,0,1-1.444-.586L.713,7.707a.985.985,0,0,1,0-1.414L6.541.586A2.064,2.064,0,0,1,7.985,0Z" transform="translate(-0.414)" fill="#ed4245"/>
</svg>
