<svg id="그룹_13" data-name="그룹 13" xmlns="http://www.w3.org/2000/svg" xmlns:xlink="http://www.w3.org/1999/xlink" width="24" height="24" viewBox="0 0 24 24">
  <defs>
    <clipPath id="clip-path">
      <rect id="사각형_29" data-name="사각형 29" width="24" height="24" fill="#99aab5"/>
    </clipPath>
  </defs>
  <g id="그룹_12" data-name="그룹 12" clip-path="url(#clip-path)">
    <path id="패스_21" data-name="패스 21" d="M245.409,13.494c-.478-4.3-2.491-5.861-4.072-6.416.635-2.458.543-4.341-.275-5.61A3.085,3.085,0,0,0,238.449,0c-1.79,0-3.4,1.48-4.113,3.769-.65,2.1-3.657,2.7-4,2.765a2.4,2.4,0,0,0-1.952,2.386V19.25a2.431,2.431,0,0,0,1.24,2.132c.79.437,4.921,2.618,8.712,2.618a6.707,6.707,0,0,0,5.32-2.2c1.574-1.807,2.161-4.6,1.75-8.306" transform="translate(-221.536)" fill="#99aab5"/>
    <path id="패스_22" data-name="패스 22" d="M4.591,230.992H.516a.523.523,0,0,0-.516.53v13.554a.523.523,0,0,0,.516.53H4.591a.523.523,0,0,0,.517-.53V231.522a.523.523,0,0,0-.517-.53" transform="translate(0 -223.886)" fill="#99aab5"/>
  </g>
</svg>
