<svg xmlns="http://www.w3.org/2000/svg" width="5" height="17.995" viewBox="0 0 5 17.995">
  <g id="more-svgrepo-com" transform="translate(-22 0.134)">
    <path id="패스_9" data-name="패스 9" d="M24.5,4.788A2.442,2.442,0,0,0,27,2.412a2.5,2.5,0,1,0-5,0,2.442,2.442,0,0,0,2.5,2.376Z" fill="#99aab5"/>
    <path id="패스_10" data-name="패스 10" d="M24.433,44a2.381,2.381,0,1,0,2.5,2.376A2.441,2.441,0,0,0,24.433,44Z" transform="translate(0.07 -30.896)" fill="#99aab5"/>
    <path id="패스_11" data-name="패스 11" d="M24.433,22a2.381,2.381,0,1,0,2.5,2.376A2.441,2.441,0,0,0,24.433,22Z" transform="translate(0.07 -15.431)" fill="#99aab5"/>
  </g>
</svg>
