<svg xmlns="http://www.w3.org/2000/svg" width="18" height="18" viewBox="0 0 18 18">
  <g id="menu-svgrepo-com" transform="translate(0 -1.75)">
    <g id="그룹_4" data-name="그룹 4" transform="translate(0 1.75)">
      <path id="패스_6" data-name="패스 6" d="M17.419,1.75H.582A.6.6,0,0,0,0,2.356V5.048a.6.6,0,0,0,.582.606H17.418A.6.6,0,0,0,18,5.048V2.356A.594.594,0,0,0,17.419,1.75Z" transform="translate(0 -1.75)" fill="#99aab5"/>
      <path id="패스_7" data-name="패스 7" d="M17.419,36.75H.582A.6.6,0,0,0,0,37.356v2.692a.6.6,0,0,0,.582.606H17.418A.6.6,0,0,0,18,40.048V37.356A.594.594,0,0,0,17.419,36.75Z" transform="translate(0 -29.702)" fill="#99aab5"/>
      <path id="패스_8" data-name="패스 8" d="M17.419,71.75H.582A.6.6,0,0,0,0,72.356v2.692a.6.6,0,0,0,.582.606H17.418A.6.6,0,0,0,18,75.048V72.356A.594.594,0,0,0,17.419,71.75Z" transform="translate(0 -57.653)" fill="#99aab5"/>
    </g>
  </g>
</svg>
