<svg xmlns="http://www.w3.org/2000/svg" width="20" height="18" viewBox="0 0 20 18">
  <g id="camera-svgrepo-com" transform="translate(-2 -2)">
    <path id="패스_25" data-name="패스 25" d="M12,9a3,3,0,1,0,3,3A3.04,3.04,0,0,0,12,9Z" fill="#1e2124"/>
    <path id="패스_26" data-name="패스 26" d="M20,5H17.414L14.707,2.293A1,1,0,0,0,14,2H10a1,1,0,0,0-.707.293L6.586,5H4A2,2,0,0,0,2,7V18a2,2,0,0,0,2,2H20a2,2,0,0,0,2-2V7A2,2,0,0,0,20,5ZM12,17a5.067,5.067,0,0,1-5-5,5.067,5.067,0,0,1,5-5,5.067,5.067,0,0,1,5,5A5.067,5.067,0,0,1,12,17Z" fill="#1e2124"/>
  </g>
</svg>
