<svg xmlns="http://www.w3.org/2000/svg" width="22" height="21.998" viewBox="0 0 22 21.998">
  <g id="picture-svgrepo-com" transform="translate(-0.049)">
    <g id="그룹_9" data-name="그룹 9" transform="translate(0.049)">
      <path id="패스_19" data-name="패스 19" d="M19.785,0H2.321A2.275,2.275,0,0,0,.049,2.272V19.731A2.271,2.271,0,0,0,2.317,22H19.781a2.271,2.271,0,0,0,2.268-2.267V2.272A2.262,2.262,0,0,0,19.785,0Zm-.4,13.6-3.444-3.444a.5.5,0,0,0-.7,0l-2.5,2.5L8.414,8.327a.5.5,0,0,0-.7,0L2.72,13.309V2.67H19.387Z" transform="translate(-0.049)" fill="#99aab5"/>
      <circle id="타원_1" data-name="타원 1" cx="1.919" cy="1.919" r="1.919" transform="translate(11.367 4.338)" fill="#99aab5"/>
    </g>
  </g>
</svg>
