<svg xmlns="http://www.w3.org/2000/svg" width="24" height="24" viewBox="0 0 24 24">
  <g id="_-Product-Icons" data-name="ðŸ”-Product-Icons" transform="translate(-2 -2.65)">
    <g id="ic_fluent_send_28_filled" transform="translate(2 2.65)">
      <path id="_-Color" data-name="ðŸŽ¨-Color" d="M3.822,2.78,25.276,13.455a1.348,1.348,0,0,1,.6,1.766,1.3,1.3,0,0,1-.6.623L3.822,26.52a1.251,1.251,0,0,1-1.7-.623,1.373,1.373,0,0,1-.08-.92l2.146-8.187a.516.516,0,0,1,.423-.385l10.4-1.469a.256.256,0,0,0,.2-.158l.018-.067a.266.266,0,0,0-.159-.284l-.057-.016L4.626,12.942a.516.516,0,0,1-.423-.385L2.045,4.323A1.331,1.331,0,0,1,2.938,2.7,1.228,1.228,0,0,1,3.822,2.78Z" transform="translate(-2 -2.65)" fill="#99aab5"/>
    </g>
  </g>
</svg>
