<svg xmlns="http://www.w3.org/2000/svg" width="24" height="24" viewBox="0 0 24 24">
  <path id="github-fill-svgrepo-com" d="M12,0A12.151,12.151,0,0,0,0,12.3,12.272,12.272,0,0,0,8.2,23.976c.6.108.825-.261.825-.584,0-.292-.015-1.261-.015-2.292C6,21.67,5.22,20.347,4.98,19.655a4.472,4.472,0,0,0-1.23-1.738c-.42-.231-1.02-.8-.015-.815A2.4,2.4,0,0,1,5.58,18.363a2.529,2.529,0,0,0,3.495,1.015,2.613,2.613,0,0,1,.765-1.646c-2.67-.308-5.46-1.369-5.46-6.075A4.857,4.857,0,0,1,5.61,8.351a4.525,4.525,0,0,1,.12-3.26s1.005-.323,3.3,1.261a11.045,11.045,0,0,1,6,0c2.3-1.6,3.3-1.261,3.3-1.261a4.525,4.525,0,0,1,.12,3.26,4.828,4.828,0,0,1,1.23,3.307c0,4.721-2.805,5.767-5.475,6.075a2.953,2.953,0,0,1,.81,2.276c0,1.646-.015,2.968-.015,3.383,0,.323.225.707.825.584a12.047,12.047,0,0,0,5.919-4.488A12.536,12.536,0,0,0,24,12.3,12.151,12.151,0,0,0,12,0Z" fill="#99aab5" fill-rule="evenodd"/>
</svg>
