<svg xmlns="http://www.w3.org/2000/svg" xmlns:xlink="http://www.w3.org/1999/xlink" width="24" height="24" viewBox="0 0 24 24">
  <defs>
    <clipPath id="clip-path">
      <path id="패스_17" data-name="패스 17" d="M0,0H24V24H0Z" fill="#99aab5"/>
    </clipPath>
  </defs>
  <g id="light-mode-svgrepo-com" clip-path="url(#clip-path)">
    <path id="패스_16" data-name="패스 16" d="M12,0a1,1,0,0,1,1,1V5a1,1,0,0,1-2,0V1A1,1,0,0,1,12,0ZM4.929,3.515A1,1,0,1,0,3.515,4.929L6.343,7.757A1,1,0,1,0,7.757,6.343L4.93,3.515ZM1,11a1,1,0,0,0,0,2H5a1,1,0,0,0,0-2Zm17,1a1,1,0,0,1,1-1h4a1,1,0,0,1,0,2H19A1,1,0,0,1,18,12Zm-.343,4.243a1,1,0,1,0-1.414,1.414l2.828,2.828a1,1,0,1,0,1.414-1.414l-2.828-2.828Zm-9.9,1.414a1,1,0,1,0-1.414-1.414L3.515,19.07a1,1,0,1,0,1.414,1.414l2.828-2.828ZM20.485,4.929a1,1,0,1,0-1.414-1.414L16.243,6.343a1,1,0,1,0,1.414,1.414ZM13,19a1,1,0,0,0-2,0v4a1,1,0,0,0,2,0ZM12,7a5,5,0,1,0,5,5A5,5,0,0,0,12,7Z" fill="#99aab5"/>
  </g>
</svg>
